<svg xmlns="http://www.w3.org/2000/svg" viewBox="0 0 410 404" fill="none">
  <path d="M399.641 59.524c10.901-26.134-14.119-51.153-40.253-40.253L39.179 175.72c-30.702 12.77-28.397 56.84 3.38 66.363l89.684 26.954 26.954 89.684c9.523 31.777 53.593 34.082 66.363 3.38L399.64 59.524z" fill="#41D1FF"/>
  <path d="M277.6 52.538c5.363-32.136-36.665-50.643-57.838-25.353L128.15 147.82c-19.522 25.848-2.002 63.302 29.9 63.896l86.648 1.611 1.611 86.648c.594 31.902 38.048 49.422 63.896 29.9l120.635-91.612c25.29-21.173 6.783-63.201-25.353-57.838l-84.888 14.148 14.147-84.889z" fill="#646CFF"/>
</svg>
